<svg width="120" height="40" viewBox="0 0 120 40" fill="none" xmlns="http://www.w3.org/2000/svg">
  <path d="M12 8H28V12H12V8Z" fill="#00AEEF"/>
  <path d="M12 16H28V20H12V16Z" fill="#00AEEF"/>
  <path d="M12 24H28V28H12V24Z" fill="#39FF14"/>
  <path d="M40 10H44V30H40V10Z" fill="#FFFFFF"/>
  <path d="M48 10H60C62.2 10 64 11.8 64 14V18C64 20.2 62.2 22 60 22H52V30H48V10ZM52 18H58C59.1 18 60 17.1 60 16V14C60 12.9 59.1 12 58 12H52V18Z" fill="#FFFFFF"/>
  <path d="M68 10H72V20C72 22.2 73.8 24 76 24H80C82.2 24 84 22.2 84 20V10H88V20C88 24.4 84.4 28 80 28H76C71.6 28 68 24.4 68 20V10Z" fill="#FFFFFF"/>
  <path d="M92 10H96V22H104V10H108V22C108 25.3 105.3 28 102 28H98C94.7 28 92 25.3 92 22V10Z" fill="#FFFFFF"/>
  <path d="M112 10H116V18C116 21.3 113.3 24 110 24C106.7 24 104 21.3 104 18V10H108V18C108 19.1 108.9 20 110 20C111.1 20 112 19.1 112 18V10Z" fill="#FFFFFF"/>
  <path d="M120 10H124V30H120V10Z" fill="#FFFFFF"/>
</svg>
